<mxfile host="app.diagrams.net" agent="Mozilla/5.0 (Windows NT 10.0; Win64; x64) AppleWebKit/537.36 (KHTML, like Gecko) Chrome/133.0.0.0 Safari/537.36" version="26.0.16">
  <diagram name="Page-1" id="uia0H3ehmADb5V8uRqok">
    <mxGraphModel grid="1" page="1" gridSize="10" guides="1" tooltips="1" connect="1" arrows="1" fold="1" pageScale="1" pageWidth="850" pageHeight="1100" math="0" shadow="0">
      <root>
        <mxCell id="0" />
        <mxCell id="1" parent="0" />
        <mxCell id="_Uz8rMzAMLqi7l_KZJHt-1" value="" style="whiteSpace=wrap;html=1;aspect=fixed;" vertex="1" parent="1">
          <mxGeometry x="70" y="80" width="160" height="160" as="geometry" />
        </mxCell>
        <mxCell id="_Uz8rMzAMLqi7l_KZJHt-2" value="00" style="text;html=1;align=center;verticalAlign=middle;resizable=0;points=[];autosize=1;strokeColor=none;fillColor=none;" vertex="1" parent="1">
          <mxGeometry x="70" y="58" width="40" height="30" as="geometry" />
        </mxCell>
        <mxCell id="_Uz8rMzAMLqi7l_KZJHt-3" value="01" style="text;html=1;align=center;verticalAlign=middle;resizable=0;points=[];autosize=1;strokeColor=none;fillColor=none;" vertex="1" parent="1">
          <mxGeometry x="110" y="56" width="40" height="30" as="geometry" />
        </mxCell>
        <mxCell id="_Uz8rMzAMLqi7l_KZJHt-4" value="11" style="text;html=1;align=center;verticalAlign=middle;resizable=0;points=[];autosize=1;strokeColor=none;fillColor=none;" vertex="1" parent="1">
          <mxGeometry x="140" y="58" width="40" height="30" as="geometry" />
        </mxCell>
        <mxCell id="_Uz8rMzAMLqi7l_KZJHt-5" value="10" style="text;html=1;align=center;verticalAlign=middle;resizable=0;points=[];autosize=1;strokeColor=none;fillColor=none;" vertex="1" parent="1">
          <mxGeometry x="180" y="58" width="40" height="30" as="geometry" />
        </mxCell>
        <mxCell id="_Uz8rMzAMLqi7l_KZJHt-6" value="00" style="text;html=1;align=center;verticalAlign=middle;resizable=0;points=[];autosize=1;strokeColor=none;fillColor=none;" vertex="1" parent="1">
          <mxGeometry x="40" y="98" width="40" height="30" as="geometry" />
        </mxCell>
        <mxCell id="_Uz8rMzAMLqi7l_KZJHt-7" value="01" style="text;html=1;align=center;verticalAlign=middle;resizable=0;points=[];autosize=1;strokeColor=none;fillColor=none;" vertex="1" parent="1">
          <mxGeometry x="40" y="138" width="40" height="30" as="geometry" />
        </mxCell>
        <mxCell id="_Uz8rMzAMLqi7l_KZJHt-8" value="11" style="text;html=1;align=center;verticalAlign=middle;resizable=0;points=[];autosize=1;strokeColor=none;fillColor=none;" vertex="1" parent="1">
          <mxGeometry x="40" y="168" width="40" height="30" as="geometry" />
        </mxCell>
        <mxCell id="_Uz8rMzAMLqi7l_KZJHt-9" value="10" style="text;html=1;align=center;verticalAlign=middle;resizable=0;points=[];autosize=1;strokeColor=none;fillColor=none;" vertex="1" parent="1">
          <mxGeometry x="40" y="208" width="40" height="30" as="geometry" />
        </mxCell>
        <mxCell id="_Uz8rMzAMLqi7l_KZJHt-10" value="" style="endArrow=none;html=1;strokeWidth=1;rounded=0;fontFamily=Helvetica;fontSize=12;fontColor=default;fontStyle=1;" edge="1" parent="1">
          <mxGeometry width="100" relative="1" as="geometry">
            <mxPoint x="68" y="120" as="sourcePoint" />
            <mxPoint x="230" y="120" as="targetPoint" />
          </mxGeometry>
        </mxCell>
        <mxCell id="_Uz8rMzAMLqi7l_KZJHt-11" value="" style="endArrow=none;html=1;strokeWidth=1;rounded=0;fontFamily=Helvetica;fontSize=12;fontColor=default;fontStyle=1;exitX=0.75;exitY=0.733;exitDx=0;exitDy=0;exitPerimeter=0;" edge="1" parent="1" source="_Uz8rMzAMLqi7l_KZJHt-7">
          <mxGeometry width="100" relative="1" as="geometry">
            <mxPoint x="140" y="165" as="sourcePoint" />
            <mxPoint x="230" y="160" as="targetPoint" />
          </mxGeometry>
        </mxCell>
        <mxCell id="_Uz8rMzAMLqi7l_KZJHt-12" value="" style="endArrow=none;html=1;strokeWidth=1;rounded=0;fontFamily=Helvetica;fontSize=12;fontColor=default;fontStyle=1;exitX=0.006;exitY=0.713;exitDx=0;exitDy=0;exitPerimeter=0;entryX=0.988;entryY=0.713;entryDx=0;entryDy=0;entryPerimeter=0;" edge="1" parent="1" source="_Uz8rMzAMLqi7l_KZJHt-1" target="_Uz8rMzAMLqi7l_KZJHt-1">
          <mxGeometry width="100" relative="1" as="geometry">
            <mxPoint x="150" y="175" as="sourcePoint" />
            <mxPoint x="665" y="173" as="targetPoint" />
          </mxGeometry>
        </mxCell>
        <mxCell id="_Uz8rMzAMLqi7l_KZJHt-13" value="" style="endArrow=none;html=1;strokeWidth=1;rounded=0;fontFamily=Helvetica;fontSize=12;fontColor=default;fontStyle=1;entryX=0.25;entryY=1;entryDx=0;entryDy=0;" edge="1" parent="1" target="_Uz8rMzAMLqi7l_KZJHt-1">
          <mxGeometry width="100" relative="1" as="geometry">
            <mxPoint x="110" y="81" as="sourcePoint" />
            <mxPoint x="675" y="183" as="targetPoint" />
          </mxGeometry>
        </mxCell>
        <mxCell id="_Uz8rMzAMLqi7l_KZJHt-14" value="" style="endArrow=none;html=1;strokeWidth=1;rounded=0;fontFamily=Helvetica;fontSize=12;fontColor=default;fontStyle=1;entryX=0.5;entryY=1;entryDx=0;entryDy=0;" edge="1" parent="1" target="_Uz8rMzAMLqi7l_KZJHt-1">
          <mxGeometry width="100" relative="1" as="geometry">
            <mxPoint x="150" y="80" as="sourcePoint" />
            <mxPoint x="685" y="193" as="targetPoint" />
          </mxGeometry>
        </mxCell>
        <mxCell id="_Uz8rMzAMLqi7l_KZJHt-15" value="" style="endArrow=none;html=1;strokeWidth=1;rounded=0;fontFamily=Helvetica;fontSize=12;fontColor=default;fontStyle=1;entryX=0.75;entryY=1;entryDx=0;entryDy=0;" edge="1" parent="1" target="_Uz8rMzAMLqi7l_KZJHt-1">
          <mxGeometry width="100" relative="1" as="geometry">
            <mxPoint x="190" y="80" as="sourcePoint" />
            <mxPoint x="695" y="203" as="targetPoint" />
          </mxGeometry>
        </mxCell>
        <mxCell id="_Uz8rMzAMLqi7l_KZJHt-16" value="" style="endArrow=none;html=1;strokeWidth=1;rounded=0;fontFamily=Helvetica;fontSize=12;fontColor=default;fontStyle=1;" edge="1" parent="1">
          <mxGeometry width="100" relative="1" as="geometry">
            <mxPoint x="40" y="30" as="sourcePoint" />
            <mxPoint x="70" y="80" as="targetPoint" />
          </mxGeometry>
        </mxCell>
        <mxCell id="_Uz8rMzAMLqi7l_KZJHt-17" value="A[1]&lt;div&gt;A[0]&lt;/div&gt;" style="text;html=1;align=center;verticalAlign=middle;resizable=0;points=[];autosize=1;strokeColor=none;fillColor=none;" vertex="1" parent="1">
          <mxGeometry x="15" y="48" width="40" height="40" as="geometry" />
        </mxCell>
        <mxCell id="_Uz8rMzAMLqi7l_KZJHt-18" value="B[1]&lt;div&gt;B[0]&lt;/div&gt;" style="text;html=1;align=center;verticalAlign=middle;resizable=0;points=[];autosize=1;strokeColor=none;fillColor=none;" vertex="1" parent="1">
          <mxGeometry x="50" y="23" width="40" height="40" as="geometry" />
        </mxCell>
        <mxCell id="_Uz8rMzAMLqi7l_KZJHt-19" value="" style="whiteSpace=wrap;html=1;aspect=fixed;" vertex="1" parent="1">
          <mxGeometry x="340" y="78" width="160" height="160" as="geometry" />
        </mxCell>
        <mxCell id="_Uz8rMzAMLqi7l_KZJHt-20" value="00" style="text;html=1;align=center;verticalAlign=middle;resizable=0;points=[];autosize=1;strokeColor=none;fillColor=none;" vertex="1" parent="1">
          <mxGeometry x="340" y="56" width="40" height="30" as="geometry" />
        </mxCell>
        <mxCell id="_Uz8rMzAMLqi7l_KZJHt-21" value="01" style="text;html=1;align=center;verticalAlign=middle;resizable=0;points=[];autosize=1;strokeColor=none;fillColor=none;" vertex="1" parent="1">
          <mxGeometry x="370" y="56" width="40" height="30" as="geometry" />
        </mxCell>
        <mxCell id="_Uz8rMzAMLqi7l_KZJHt-22" value="11" style="text;html=1;align=center;verticalAlign=middle;resizable=0;points=[];autosize=1;strokeColor=none;fillColor=none;" vertex="1" parent="1">
          <mxGeometry x="410" y="56" width="40" height="30" as="geometry" />
        </mxCell>
        <mxCell id="_Uz8rMzAMLqi7l_KZJHt-23" value="10" style="text;html=1;align=center;verticalAlign=middle;resizable=0;points=[];autosize=1;strokeColor=none;fillColor=none;" vertex="1" parent="1">
          <mxGeometry x="450" y="56" width="40" height="30" as="geometry" />
        </mxCell>
        <mxCell id="_Uz8rMzAMLqi7l_KZJHt-24" value="00" style="text;html=1;align=center;verticalAlign=middle;resizable=0;points=[];autosize=1;strokeColor=none;fillColor=none;" vertex="1" parent="1">
          <mxGeometry x="310" y="96" width="40" height="30" as="geometry" />
        </mxCell>
        <mxCell id="_Uz8rMzAMLqi7l_KZJHt-25" value="01" style="text;html=1;align=center;verticalAlign=middle;resizable=0;points=[];autosize=1;strokeColor=none;fillColor=none;" vertex="1" parent="1">
          <mxGeometry x="310" y="136" width="40" height="30" as="geometry" />
        </mxCell>
        <mxCell id="_Uz8rMzAMLqi7l_KZJHt-26" value="11" style="text;html=1;align=center;verticalAlign=middle;resizable=0;points=[];autosize=1;strokeColor=none;fillColor=none;" vertex="1" parent="1">
          <mxGeometry x="310" y="166" width="40" height="30" as="geometry" />
        </mxCell>
        <mxCell id="_Uz8rMzAMLqi7l_KZJHt-27" value="10" style="text;html=1;align=center;verticalAlign=middle;resizable=0;points=[];autosize=1;strokeColor=none;fillColor=none;" vertex="1" parent="1">
          <mxGeometry x="310" y="206" width="40" height="30" as="geometry" />
        </mxCell>
        <mxCell id="_Uz8rMzAMLqi7l_KZJHt-28" value="" style="endArrow=none;html=1;strokeWidth=1;rounded=0;fontFamily=Helvetica;fontSize=12;fontColor=default;fontStyle=1;" edge="1" parent="1">
          <mxGeometry width="100" relative="1" as="geometry">
            <mxPoint x="338" y="118" as="sourcePoint" />
            <mxPoint x="500" y="118" as="targetPoint" />
          </mxGeometry>
        </mxCell>
        <mxCell id="_Uz8rMzAMLqi7l_KZJHt-29" value="" style="endArrow=none;html=1;strokeWidth=1;rounded=0;fontFamily=Helvetica;fontSize=12;fontColor=default;fontStyle=1;exitX=0.75;exitY=0.733;exitDx=0;exitDy=0;exitPerimeter=0;" edge="1" parent="1" source="_Uz8rMzAMLqi7l_KZJHt-25">
          <mxGeometry width="100" relative="1" as="geometry">
            <mxPoint x="410" y="163" as="sourcePoint" />
            <mxPoint x="500" y="158" as="targetPoint" />
          </mxGeometry>
        </mxCell>
        <mxCell id="_Uz8rMzAMLqi7l_KZJHt-30" value="" style="endArrow=none;html=1;strokeWidth=1;rounded=0;fontFamily=Helvetica;fontSize=12;fontColor=default;fontStyle=1;exitX=0.006;exitY=0.713;exitDx=0;exitDy=0;exitPerimeter=0;entryX=0.988;entryY=0.713;entryDx=0;entryDy=0;entryPerimeter=0;" edge="1" parent="1" source="_Uz8rMzAMLqi7l_KZJHt-19" target="_Uz8rMzAMLqi7l_KZJHt-19">
          <mxGeometry width="100" relative="1" as="geometry">
            <mxPoint x="420" y="173" as="sourcePoint" />
            <mxPoint x="935" y="171" as="targetPoint" />
          </mxGeometry>
        </mxCell>
        <mxCell id="_Uz8rMzAMLqi7l_KZJHt-31" value="" style="endArrow=none;html=1;strokeWidth=1;rounded=0;fontFamily=Helvetica;fontSize=12;fontColor=default;fontStyle=1;entryX=0.25;entryY=1;entryDx=0;entryDy=0;" edge="1" parent="1" target="_Uz8rMzAMLqi7l_KZJHt-19">
          <mxGeometry width="100" relative="1" as="geometry">
            <mxPoint x="380" y="79" as="sourcePoint" />
            <mxPoint x="945" y="181" as="targetPoint" />
          </mxGeometry>
        </mxCell>
        <mxCell id="_Uz8rMzAMLqi7l_KZJHt-32" value="" style="endArrow=none;html=1;strokeWidth=1;rounded=0;fontFamily=Helvetica;fontSize=12;fontColor=default;fontStyle=1;entryX=0.5;entryY=1;entryDx=0;entryDy=0;" edge="1" parent="1" target="_Uz8rMzAMLqi7l_KZJHt-19">
          <mxGeometry width="100" relative="1" as="geometry">
            <mxPoint x="420" y="78" as="sourcePoint" />
            <mxPoint x="955" y="191" as="targetPoint" />
          </mxGeometry>
        </mxCell>
        <mxCell id="_Uz8rMzAMLqi7l_KZJHt-33" value="" style="endArrow=none;html=1;strokeWidth=1;rounded=0;fontFamily=Helvetica;fontSize=12;fontColor=default;fontStyle=1;entryX=0.75;entryY=1;entryDx=0;entryDy=0;" edge="1" parent="1" target="_Uz8rMzAMLqi7l_KZJHt-19">
          <mxGeometry width="100" relative="1" as="geometry">
            <mxPoint x="460" y="78" as="sourcePoint" />
            <mxPoint x="965" y="201" as="targetPoint" />
          </mxGeometry>
        </mxCell>
        <mxCell id="_Uz8rMzAMLqi7l_KZJHt-34" value="" style="endArrow=none;html=1;strokeWidth=1;rounded=0;fontFamily=Helvetica;fontSize=12;fontColor=default;fontStyle=1;" edge="1" parent="1">
          <mxGeometry width="100" relative="1" as="geometry">
            <mxPoint x="310" y="28" as="sourcePoint" />
            <mxPoint x="340" y="78" as="targetPoint" />
          </mxGeometry>
        </mxCell>
        <mxCell id="_Uz8rMzAMLqi7l_KZJHt-37" value="" style="whiteSpace=wrap;html=1;aspect=fixed;" vertex="1" parent="1">
          <mxGeometry x="620" y="87" width="160" height="160" as="geometry" />
        </mxCell>
        <mxCell id="_Uz8rMzAMLqi7l_KZJHt-38" value="00" style="text;html=1;align=center;verticalAlign=middle;resizable=0;points=[];autosize=1;strokeColor=none;fillColor=none;" vertex="1" parent="1">
          <mxGeometry x="620" y="65" width="40" height="30" as="geometry" />
        </mxCell>
        <mxCell id="_Uz8rMzAMLqi7l_KZJHt-39" value="01" style="text;html=1;align=center;verticalAlign=middle;resizable=0;points=[];autosize=1;strokeColor=none;fillColor=none;" vertex="1" parent="1">
          <mxGeometry x="650" y="65" width="40" height="30" as="geometry" />
        </mxCell>
        <mxCell id="_Uz8rMzAMLqi7l_KZJHt-40" value="11" style="text;html=1;align=center;verticalAlign=middle;resizable=0;points=[];autosize=1;strokeColor=none;fillColor=none;" vertex="1" parent="1">
          <mxGeometry x="690" y="65" width="40" height="30" as="geometry" />
        </mxCell>
        <mxCell id="_Uz8rMzAMLqi7l_KZJHt-41" value="10" style="text;html=1;align=center;verticalAlign=middle;resizable=0;points=[];autosize=1;strokeColor=none;fillColor=none;" vertex="1" parent="1">
          <mxGeometry x="730" y="65" width="40" height="30" as="geometry" />
        </mxCell>
        <mxCell id="_Uz8rMzAMLqi7l_KZJHt-42" value="00" style="text;html=1;align=center;verticalAlign=middle;resizable=0;points=[];autosize=1;strokeColor=none;fillColor=none;" vertex="1" parent="1">
          <mxGeometry x="590" y="105" width="40" height="30" as="geometry" />
        </mxCell>
        <mxCell id="_Uz8rMzAMLqi7l_KZJHt-43" value="01" style="text;html=1;align=center;verticalAlign=middle;resizable=0;points=[];autosize=1;strokeColor=none;fillColor=none;" vertex="1" parent="1">
          <mxGeometry x="590" y="145" width="40" height="30" as="geometry" />
        </mxCell>
        <mxCell id="_Uz8rMzAMLqi7l_KZJHt-44" value="11" style="text;html=1;align=center;verticalAlign=middle;resizable=0;points=[];autosize=1;strokeColor=none;fillColor=none;" vertex="1" parent="1">
          <mxGeometry x="590" y="175" width="40" height="30" as="geometry" />
        </mxCell>
        <mxCell id="_Uz8rMzAMLqi7l_KZJHt-45" value="10" style="text;html=1;align=center;verticalAlign=middle;resizable=0;points=[];autosize=1;strokeColor=none;fillColor=none;" vertex="1" parent="1">
          <mxGeometry x="590" y="215" width="40" height="30" as="geometry" />
        </mxCell>
        <mxCell id="_Uz8rMzAMLqi7l_KZJHt-46" value="" style="endArrow=none;html=1;strokeWidth=1;rounded=0;fontFamily=Helvetica;fontSize=12;fontColor=default;fontStyle=1;" edge="1" parent="1">
          <mxGeometry width="100" relative="1" as="geometry">
            <mxPoint x="618" y="127" as="sourcePoint" />
            <mxPoint x="780" y="127" as="targetPoint" />
          </mxGeometry>
        </mxCell>
        <mxCell id="_Uz8rMzAMLqi7l_KZJHt-47" value="" style="endArrow=none;html=1;strokeWidth=1;rounded=0;fontFamily=Helvetica;fontSize=12;fontColor=default;fontStyle=1;exitX=0.75;exitY=0.733;exitDx=0;exitDy=0;exitPerimeter=0;" edge="1" parent="1" source="_Uz8rMzAMLqi7l_KZJHt-43">
          <mxGeometry width="100" relative="1" as="geometry">
            <mxPoint x="690" y="172" as="sourcePoint" />
            <mxPoint x="780" y="167" as="targetPoint" />
          </mxGeometry>
        </mxCell>
        <mxCell id="_Uz8rMzAMLqi7l_KZJHt-48" value="" style="endArrow=none;html=1;strokeWidth=1;rounded=0;fontFamily=Helvetica;fontSize=12;fontColor=default;fontStyle=1;exitX=0.006;exitY=0.713;exitDx=0;exitDy=0;exitPerimeter=0;entryX=0.988;entryY=0.713;entryDx=0;entryDy=0;entryPerimeter=0;" edge="1" parent="1" source="_Uz8rMzAMLqi7l_KZJHt-37" target="_Uz8rMzAMLqi7l_KZJHt-37">
          <mxGeometry width="100" relative="1" as="geometry">
            <mxPoint x="700" y="182" as="sourcePoint" />
            <mxPoint x="1215" y="180" as="targetPoint" />
          </mxGeometry>
        </mxCell>
        <mxCell id="_Uz8rMzAMLqi7l_KZJHt-49" value="" style="endArrow=none;html=1;strokeWidth=1;rounded=0;fontFamily=Helvetica;fontSize=12;fontColor=default;fontStyle=1;entryX=0.25;entryY=1;entryDx=0;entryDy=0;" edge="1" parent="1" target="_Uz8rMzAMLqi7l_KZJHt-37">
          <mxGeometry width="100" relative="1" as="geometry">
            <mxPoint x="660" y="88" as="sourcePoint" />
            <mxPoint x="1225" y="190" as="targetPoint" />
          </mxGeometry>
        </mxCell>
        <mxCell id="_Uz8rMzAMLqi7l_KZJHt-50" value="" style="endArrow=none;html=1;strokeWidth=1;rounded=0;fontFamily=Helvetica;fontSize=12;fontColor=default;fontStyle=1;entryX=0.5;entryY=1;entryDx=0;entryDy=0;" edge="1" parent="1" target="_Uz8rMzAMLqi7l_KZJHt-37">
          <mxGeometry width="100" relative="1" as="geometry">
            <mxPoint x="700" y="87" as="sourcePoint" />
            <mxPoint x="1235" y="200" as="targetPoint" />
          </mxGeometry>
        </mxCell>
        <mxCell id="_Uz8rMzAMLqi7l_KZJHt-51" value="" style="endArrow=none;html=1;strokeWidth=1;rounded=0;fontFamily=Helvetica;fontSize=12;fontColor=default;fontStyle=1;entryX=0.75;entryY=1;entryDx=0;entryDy=0;" edge="1" parent="1" target="_Uz8rMzAMLqi7l_KZJHt-37">
          <mxGeometry width="100" relative="1" as="geometry">
            <mxPoint x="740" y="87" as="sourcePoint" />
            <mxPoint x="1245" y="210" as="targetPoint" />
          </mxGeometry>
        </mxCell>
        <mxCell id="_Uz8rMzAMLqi7l_KZJHt-52" value="" style="endArrow=none;html=1;strokeWidth=1;rounded=0;fontFamily=Helvetica;fontSize=12;fontColor=default;fontStyle=1;" edge="1" parent="1">
          <mxGeometry width="100" relative="1" as="geometry">
            <mxPoint x="590" y="37" as="sourcePoint" />
            <mxPoint x="620" y="87" as="targetPoint" />
          </mxGeometry>
        </mxCell>
        <mxCell id="_Uz8rMzAMLqi7l_KZJHt-55" value="" style="whiteSpace=wrap;html=1;aspect=fixed;" vertex="1" parent="1">
          <mxGeometry x="100" y="318" width="160" height="160" as="geometry" />
        </mxCell>
        <mxCell id="_Uz8rMzAMLqi7l_KZJHt-56" value="00" style="text;html=1;align=center;verticalAlign=middle;resizable=0;points=[];autosize=1;strokeColor=none;fillColor=none;" vertex="1" parent="1">
          <mxGeometry x="100" y="296" width="40" height="30" as="geometry" />
        </mxCell>
        <mxCell id="_Uz8rMzAMLqi7l_KZJHt-57" value="01" style="text;html=1;align=center;verticalAlign=middle;resizable=0;points=[];autosize=1;strokeColor=none;fillColor=none;" vertex="1" parent="1">
          <mxGeometry x="130" y="296" width="40" height="30" as="geometry" />
        </mxCell>
        <mxCell id="_Uz8rMzAMLqi7l_KZJHt-58" value="11" style="text;html=1;align=center;verticalAlign=middle;resizable=0;points=[];autosize=1;strokeColor=none;fillColor=none;" vertex="1" parent="1">
          <mxGeometry x="170" y="296" width="40" height="30" as="geometry" />
        </mxCell>
        <mxCell id="_Uz8rMzAMLqi7l_KZJHt-59" value="10" style="text;html=1;align=center;verticalAlign=middle;resizable=0;points=[];autosize=1;strokeColor=none;fillColor=none;" vertex="1" parent="1">
          <mxGeometry x="210" y="296" width="40" height="30" as="geometry" />
        </mxCell>
        <mxCell id="_Uz8rMzAMLqi7l_KZJHt-60" value="00" style="text;html=1;align=center;verticalAlign=middle;resizable=0;points=[];autosize=1;strokeColor=none;fillColor=none;" vertex="1" parent="1">
          <mxGeometry x="70" y="336" width="40" height="30" as="geometry" />
        </mxCell>
        <mxCell id="_Uz8rMzAMLqi7l_KZJHt-61" value="01" style="text;html=1;align=center;verticalAlign=middle;resizable=0;points=[];autosize=1;strokeColor=none;fillColor=none;" vertex="1" parent="1">
          <mxGeometry x="70" y="376" width="40" height="30" as="geometry" />
        </mxCell>
        <mxCell id="_Uz8rMzAMLqi7l_KZJHt-62" value="11" style="text;html=1;align=center;verticalAlign=middle;resizable=0;points=[];autosize=1;strokeColor=none;fillColor=none;" vertex="1" parent="1">
          <mxGeometry x="70" y="406" width="40" height="30" as="geometry" />
        </mxCell>
        <mxCell id="_Uz8rMzAMLqi7l_KZJHt-63" value="10" style="text;html=1;align=center;verticalAlign=middle;resizable=0;points=[];autosize=1;strokeColor=none;fillColor=none;" vertex="1" parent="1">
          <mxGeometry x="70" y="446" width="40" height="30" as="geometry" />
        </mxCell>
        <mxCell id="_Uz8rMzAMLqi7l_KZJHt-64" value="" style="endArrow=none;html=1;strokeWidth=1;rounded=0;fontFamily=Helvetica;fontSize=12;fontColor=default;fontStyle=1;" edge="1" parent="1">
          <mxGeometry width="100" relative="1" as="geometry">
            <mxPoint x="98" y="358" as="sourcePoint" />
            <mxPoint x="260" y="358" as="targetPoint" />
          </mxGeometry>
        </mxCell>
        <mxCell id="_Uz8rMzAMLqi7l_KZJHt-65" value="" style="endArrow=none;html=1;strokeWidth=1;rounded=0;fontFamily=Helvetica;fontSize=12;fontColor=default;fontStyle=1;exitX=0.75;exitY=0.733;exitDx=0;exitDy=0;exitPerimeter=0;" edge="1" parent="1" source="_Uz8rMzAMLqi7l_KZJHt-61">
          <mxGeometry width="100" relative="1" as="geometry">
            <mxPoint x="170" y="403" as="sourcePoint" />
            <mxPoint x="260" y="398" as="targetPoint" />
          </mxGeometry>
        </mxCell>
        <mxCell id="_Uz8rMzAMLqi7l_KZJHt-66" value="" style="endArrow=none;html=1;strokeWidth=1;rounded=0;fontFamily=Helvetica;fontSize=12;fontColor=default;fontStyle=1;exitX=0.006;exitY=0.713;exitDx=0;exitDy=0;exitPerimeter=0;entryX=0.988;entryY=0.713;entryDx=0;entryDy=0;entryPerimeter=0;" edge="1" parent="1" source="_Uz8rMzAMLqi7l_KZJHt-55" target="_Uz8rMzAMLqi7l_KZJHt-55">
          <mxGeometry width="100" relative="1" as="geometry">
            <mxPoint x="180" y="413" as="sourcePoint" />
            <mxPoint x="695" y="411" as="targetPoint" />
          </mxGeometry>
        </mxCell>
        <mxCell id="_Uz8rMzAMLqi7l_KZJHt-67" value="" style="endArrow=none;html=1;strokeWidth=1;rounded=0;fontFamily=Helvetica;fontSize=12;fontColor=default;fontStyle=1;entryX=0.25;entryY=1;entryDx=0;entryDy=0;" edge="1" parent="1" target="_Uz8rMzAMLqi7l_KZJHt-55">
          <mxGeometry width="100" relative="1" as="geometry">
            <mxPoint x="140" y="319" as="sourcePoint" />
            <mxPoint x="705" y="421" as="targetPoint" />
          </mxGeometry>
        </mxCell>
        <mxCell id="_Uz8rMzAMLqi7l_KZJHt-68" value="" style="endArrow=none;html=1;strokeWidth=1;rounded=0;fontFamily=Helvetica;fontSize=12;fontColor=default;fontStyle=1;entryX=0.5;entryY=1;entryDx=0;entryDy=0;" edge="1" parent="1" target="_Uz8rMzAMLqi7l_KZJHt-55">
          <mxGeometry width="100" relative="1" as="geometry">
            <mxPoint x="180" y="318" as="sourcePoint" />
            <mxPoint x="715" y="431" as="targetPoint" />
            <Array as="points">
              <mxPoint x="180" y="418" />
            </Array>
          </mxGeometry>
        </mxCell>
        <mxCell id="_Uz8rMzAMLqi7l_KZJHt-69" value="" style="endArrow=none;html=1;strokeWidth=1;rounded=0;fontFamily=Helvetica;fontSize=12;fontColor=default;fontStyle=1;entryX=0.75;entryY=1;entryDx=0;entryDy=0;" edge="1" parent="1" target="_Uz8rMzAMLqi7l_KZJHt-55">
          <mxGeometry width="100" relative="1" as="geometry">
            <mxPoint x="220" y="318" as="sourcePoint" />
            <mxPoint x="725" y="441" as="targetPoint" />
          </mxGeometry>
        </mxCell>
        <mxCell id="_Uz8rMzAMLqi7l_KZJHt-70" value="" style="endArrow=none;html=1;strokeWidth=1;rounded=0;fontFamily=Helvetica;fontSize=12;fontColor=default;fontStyle=1;" edge="1" parent="1">
          <mxGeometry width="100" relative="1" as="geometry">
            <mxPoint x="70" y="268" as="sourcePoint" />
            <mxPoint x="100" y="318" as="targetPoint" />
          </mxGeometry>
        </mxCell>
        <mxCell id="_Uz8rMzAMLqi7l_KZJHt-73" value="" style="whiteSpace=wrap;html=1;aspect=fixed;" vertex="1" parent="1">
          <mxGeometry x="390" y="327" width="160" height="160" as="geometry" />
        </mxCell>
        <mxCell id="_Uz8rMzAMLqi7l_KZJHt-74" value="00" style="text;html=1;align=center;verticalAlign=middle;resizable=0;points=[];autosize=1;strokeColor=none;fillColor=none;" vertex="1" parent="1">
          <mxGeometry x="390" y="305" width="40" height="30" as="geometry" />
        </mxCell>
        <mxCell id="_Uz8rMzAMLqi7l_KZJHt-75" value="01" style="text;html=1;align=center;verticalAlign=middle;resizable=0;points=[];autosize=1;strokeColor=none;fillColor=none;" vertex="1" parent="1">
          <mxGeometry x="420" y="305" width="40" height="30" as="geometry" />
        </mxCell>
        <mxCell id="_Uz8rMzAMLqi7l_KZJHt-76" value="11" style="text;html=1;align=center;verticalAlign=middle;resizable=0;points=[];autosize=1;strokeColor=none;fillColor=none;" vertex="1" parent="1">
          <mxGeometry x="460" y="305" width="40" height="30" as="geometry" />
        </mxCell>
        <mxCell id="_Uz8rMzAMLqi7l_KZJHt-77" value="10" style="text;html=1;align=center;verticalAlign=middle;resizable=0;points=[];autosize=1;strokeColor=none;fillColor=none;" vertex="1" parent="1">
          <mxGeometry x="500" y="305" width="40" height="30" as="geometry" />
        </mxCell>
        <mxCell id="_Uz8rMzAMLqi7l_KZJHt-78" value="00" style="text;html=1;align=center;verticalAlign=middle;resizable=0;points=[];autosize=1;strokeColor=none;fillColor=none;" vertex="1" parent="1">
          <mxGeometry x="360" y="345" width="40" height="30" as="geometry" />
        </mxCell>
        <mxCell id="_Uz8rMzAMLqi7l_KZJHt-79" value="01" style="text;html=1;align=center;verticalAlign=middle;resizable=0;points=[];autosize=1;strokeColor=none;fillColor=none;" vertex="1" parent="1">
          <mxGeometry x="360" y="385" width="40" height="30" as="geometry" />
        </mxCell>
        <mxCell id="_Uz8rMzAMLqi7l_KZJHt-80" value="11" style="text;html=1;align=center;verticalAlign=middle;resizable=0;points=[];autosize=1;strokeColor=none;fillColor=none;" vertex="1" parent="1">
          <mxGeometry x="360" y="415" width="40" height="30" as="geometry" />
        </mxCell>
        <mxCell id="_Uz8rMzAMLqi7l_KZJHt-81" value="10" style="text;html=1;align=center;verticalAlign=middle;resizable=0;points=[];autosize=1;strokeColor=none;fillColor=none;" vertex="1" parent="1">
          <mxGeometry x="360" y="455" width="40" height="30" as="geometry" />
        </mxCell>
        <mxCell id="_Uz8rMzAMLqi7l_KZJHt-82" value="" style="endArrow=none;html=1;strokeWidth=1;rounded=0;fontFamily=Helvetica;fontSize=12;fontColor=default;fontStyle=1;" edge="1" parent="1">
          <mxGeometry width="100" relative="1" as="geometry">
            <mxPoint x="388" y="367" as="sourcePoint" />
            <mxPoint x="550" y="367" as="targetPoint" />
          </mxGeometry>
        </mxCell>
        <mxCell id="_Uz8rMzAMLqi7l_KZJHt-83" value="" style="endArrow=none;html=1;strokeWidth=1;rounded=0;fontFamily=Helvetica;fontSize=12;fontColor=default;fontStyle=1;exitX=0.75;exitY=0.733;exitDx=0;exitDy=0;exitPerimeter=0;" edge="1" parent="1" source="_Uz8rMzAMLqi7l_KZJHt-79">
          <mxGeometry width="100" relative="1" as="geometry">
            <mxPoint x="460" y="412" as="sourcePoint" />
            <mxPoint x="550" y="407" as="targetPoint" />
          </mxGeometry>
        </mxCell>
        <mxCell id="_Uz8rMzAMLqi7l_KZJHt-84" value="" style="endArrow=none;html=1;strokeWidth=1;rounded=0;fontFamily=Helvetica;fontSize=12;fontColor=default;fontStyle=1;exitX=0.006;exitY=0.713;exitDx=0;exitDy=0;exitPerimeter=0;entryX=0.988;entryY=0.713;entryDx=0;entryDy=0;entryPerimeter=0;" edge="1" parent="1" source="_Uz8rMzAMLqi7l_KZJHt-73" target="_Uz8rMzAMLqi7l_KZJHt-73">
          <mxGeometry width="100" relative="1" as="geometry">
            <mxPoint x="470" y="422" as="sourcePoint" />
            <mxPoint x="985" y="420" as="targetPoint" />
          </mxGeometry>
        </mxCell>
        <mxCell id="_Uz8rMzAMLqi7l_KZJHt-85" value="" style="endArrow=none;html=1;strokeWidth=1;rounded=0;fontFamily=Helvetica;fontSize=12;fontColor=default;fontStyle=1;entryX=0.25;entryY=1;entryDx=0;entryDy=0;" edge="1" parent="1" target="_Uz8rMzAMLqi7l_KZJHt-73">
          <mxGeometry width="100" relative="1" as="geometry">
            <mxPoint x="430" y="328" as="sourcePoint" />
            <mxPoint x="995" y="430" as="targetPoint" />
          </mxGeometry>
        </mxCell>
        <mxCell id="_Uz8rMzAMLqi7l_KZJHt-86" value="" style="endArrow=none;html=1;strokeWidth=1;rounded=0;fontFamily=Helvetica;fontSize=12;fontColor=default;fontStyle=1;entryX=0.5;entryY=1;entryDx=0;entryDy=0;" edge="1" parent="1" target="_Uz8rMzAMLqi7l_KZJHt-73">
          <mxGeometry width="100" relative="1" as="geometry">
            <mxPoint x="470" y="327" as="sourcePoint" />
            <mxPoint x="1005" y="440" as="targetPoint" />
          </mxGeometry>
        </mxCell>
        <mxCell id="_Uz8rMzAMLqi7l_KZJHt-87" value="" style="endArrow=none;html=1;strokeWidth=1;rounded=0;fontFamily=Helvetica;fontSize=12;fontColor=default;fontStyle=1;entryX=0.75;entryY=1;entryDx=0;entryDy=0;" edge="1" parent="1" target="_Uz8rMzAMLqi7l_KZJHt-73">
          <mxGeometry width="100" relative="1" as="geometry">
            <mxPoint x="510" y="327" as="sourcePoint" />
            <mxPoint x="1015" y="450" as="targetPoint" />
          </mxGeometry>
        </mxCell>
        <mxCell id="_Uz8rMzAMLqi7l_KZJHt-88" value="" style="endArrow=none;html=1;strokeWidth=1;rounded=0;fontFamily=Helvetica;fontSize=12;fontColor=default;fontStyle=1;" edge="1" parent="1">
          <mxGeometry width="100" relative="1" as="geometry">
            <mxPoint x="360" y="277" as="sourcePoint" />
            <mxPoint x="390" y="327" as="targetPoint" />
          </mxGeometry>
        </mxCell>
        <mxCell id="_Uz8rMzAMLqi7l_KZJHt-91" value="" style="whiteSpace=wrap;html=1;aspect=fixed;" vertex="1" parent="1">
          <mxGeometry x="640" y="325" width="160" height="160" as="geometry" />
        </mxCell>
        <mxCell id="_Uz8rMzAMLqi7l_KZJHt-92" value="00" style="text;html=1;align=center;verticalAlign=middle;resizable=0;points=[];autosize=1;strokeColor=none;fillColor=none;" vertex="1" parent="1">
          <mxGeometry x="640" y="303" width="40" height="30" as="geometry" />
        </mxCell>
        <mxCell id="_Uz8rMzAMLqi7l_KZJHt-93" value="01" style="text;html=1;align=center;verticalAlign=middle;resizable=0;points=[];autosize=1;strokeColor=none;fillColor=none;" vertex="1" parent="1">
          <mxGeometry x="670" y="303" width="40" height="30" as="geometry" />
        </mxCell>
        <mxCell id="_Uz8rMzAMLqi7l_KZJHt-94" value="11" style="text;html=1;align=center;verticalAlign=middle;resizable=0;points=[];autosize=1;strokeColor=none;fillColor=none;" vertex="1" parent="1">
          <mxGeometry x="710" y="303" width="40" height="30" as="geometry" />
        </mxCell>
        <mxCell id="_Uz8rMzAMLqi7l_KZJHt-95" value="10" style="text;html=1;align=center;verticalAlign=middle;resizable=0;points=[];autosize=1;strokeColor=none;fillColor=none;" vertex="1" parent="1">
          <mxGeometry x="750" y="303" width="40" height="30" as="geometry" />
        </mxCell>
        <mxCell id="_Uz8rMzAMLqi7l_KZJHt-96" value="00" style="text;html=1;align=center;verticalAlign=middle;resizable=0;points=[];autosize=1;strokeColor=none;fillColor=none;" vertex="1" parent="1">
          <mxGeometry x="610" y="343" width="40" height="30" as="geometry" />
        </mxCell>
        <mxCell id="_Uz8rMzAMLqi7l_KZJHt-97" value="01" style="text;html=1;align=center;verticalAlign=middle;resizable=0;points=[];autosize=1;strokeColor=none;fillColor=none;" vertex="1" parent="1">
          <mxGeometry x="610" y="383" width="40" height="30" as="geometry" />
        </mxCell>
        <mxCell id="_Uz8rMzAMLqi7l_KZJHt-98" value="11" style="text;html=1;align=center;verticalAlign=middle;resizable=0;points=[];autosize=1;strokeColor=none;fillColor=none;" vertex="1" parent="1">
          <mxGeometry x="610" y="413" width="40" height="30" as="geometry" />
        </mxCell>
        <mxCell id="_Uz8rMzAMLqi7l_KZJHt-99" value="10" style="text;html=1;align=center;verticalAlign=middle;resizable=0;points=[];autosize=1;strokeColor=none;fillColor=none;" vertex="1" parent="1">
          <mxGeometry x="610" y="453" width="40" height="30" as="geometry" />
        </mxCell>
        <mxCell id="_Uz8rMzAMLqi7l_KZJHt-100" value="" style="endArrow=none;html=1;strokeWidth=1;rounded=0;fontFamily=Helvetica;fontSize=12;fontColor=default;fontStyle=1;" edge="1" parent="1">
          <mxGeometry width="100" relative="1" as="geometry">
            <mxPoint x="638" y="365" as="sourcePoint" />
            <mxPoint x="800" y="365" as="targetPoint" />
          </mxGeometry>
        </mxCell>
        <mxCell id="_Uz8rMzAMLqi7l_KZJHt-101" value="" style="endArrow=none;html=1;strokeWidth=1;rounded=0;fontFamily=Helvetica;fontSize=12;fontColor=default;fontStyle=1;exitX=0.75;exitY=0.733;exitDx=0;exitDy=0;exitPerimeter=0;" edge="1" parent="1" source="_Uz8rMzAMLqi7l_KZJHt-97">
          <mxGeometry width="100" relative="1" as="geometry">
            <mxPoint x="710" y="410" as="sourcePoint" />
            <mxPoint x="800" y="405" as="targetPoint" />
          </mxGeometry>
        </mxCell>
        <mxCell id="_Uz8rMzAMLqi7l_KZJHt-102" value="" style="endArrow=none;html=1;strokeWidth=1;rounded=0;fontFamily=Helvetica;fontSize=12;fontColor=default;fontStyle=1;exitX=0.006;exitY=0.713;exitDx=0;exitDy=0;exitPerimeter=0;entryX=0.988;entryY=0.713;entryDx=0;entryDy=0;entryPerimeter=0;" edge="1" parent="1" source="_Uz8rMzAMLqi7l_KZJHt-91" target="_Uz8rMzAMLqi7l_KZJHt-91">
          <mxGeometry width="100" relative="1" as="geometry">
            <mxPoint x="720" y="420" as="sourcePoint" />
            <mxPoint x="1235" y="418" as="targetPoint" />
          </mxGeometry>
        </mxCell>
        <mxCell id="_Uz8rMzAMLqi7l_KZJHt-103" value="" style="endArrow=none;html=1;strokeWidth=1;rounded=0;fontFamily=Helvetica;fontSize=12;fontColor=default;fontStyle=1;entryX=0.25;entryY=1;entryDx=0;entryDy=0;" edge="1" parent="1" target="_Uz8rMzAMLqi7l_KZJHt-91">
          <mxGeometry width="100" relative="1" as="geometry">
            <mxPoint x="680" y="326" as="sourcePoint" />
            <mxPoint x="1245" y="428" as="targetPoint" />
          </mxGeometry>
        </mxCell>
        <mxCell id="_Uz8rMzAMLqi7l_KZJHt-104" value="" style="endArrow=none;html=1;strokeWidth=1;rounded=0;fontFamily=Helvetica;fontSize=12;fontColor=default;fontStyle=1;entryX=0.5;entryY=1;entryDx=0;entryDy=0;" edge="1" parent="1" target="_Uz8rMzAMLqi7l_KZJHt-91">
          <mxGeometry width="100" relative="1" as="geometry">
            <mxPoint x="720" y="325" as="sourcePoint" />
            <mxPoint x="1255" y="438" as="targetPoint" />
          </mxGeometry>
        </mxCell>
        <mxCell id="_Uz8rMzAMLqi7l_KZJHt-105" value="" style="endArrow=none;html=1;strokeWidth=1;rounded=0;fontFamily=Helvetica;fontSize=12;fontColor=default;fontStyle=1;entryX=0.75;entryY=1;entryDx=0;entryDy=0;" edge="1" parent="1" target="_Uz8rMzAMLqi7l_KZJHt-91">
          <mxGeometry width="100" relative="1" as="geometry">
            <mxPoint x="760" y="325" as="sourcePoint" />
            <mxPoint x="1265" y="448" as="targetPoint" />
          </mxGeometry>
        </mxCell>
        <mxCell id="_Uz8rMzAMLqi7l_KZJHt-106" value="" style="endArrow=none;html=1;strokeWidth=1;rounded=0;fontFamily=Helvetica;fontSize=12;fontColor=default;fontStyle=1;" edge="1" parent="1">
          <mxGeometry width="100" relative="1" as="geometry">
            <mxPoint x="610" y="275" as="sourcePoint" />
            <mxPoint x="640" y="325" as="targetPoint" />
          </mxGeometry>
        </mxCell>
        <mxCell id="_Uz8rMzAMLqi7l_KZJHt-109" value="" style="whiteSpace=wrap;html=1;aspect=fixed;" vertex="1" parent="1">
          <mxGeometry x="130" y="570" width="160" height="160" as="geometry" />
        </mxCell>
        <mxCell id="_Uz8rMzAMLqi7l_KZJHt-110" value="00" style="text;html=1;align=center;verticalAlign=middle;resizable=0;points=[];autosize=1;strokeColor=none;fillColor=none;" vertex="1" parent="1">
          <mxGeometry x="130" y="548" width="40" height="30" as="geometry" />
        </mxCell>
        <mxCell id="_Uz8rMzAMLqi7l_KZJHt-111" value="01" style="text;html=1;align=center;verticalAlign=middle;resizable=0;points=[];autosize=1;strokeColor=none;fillColor=none;" vertex="1" parent="1">
          <mxGeometry x="160" y="548" width="40" height="30" as="geometry" />
        </mxCell>
        <mxCell id="_Uz8rMzAMLqi7l_KZJHt-112" value="11" style="text;html=1;align=center;verticalAlign=middle;resizable=0;points=[];autosize=1;strokeColor=none;fillColor=none;" vertex="1" parent="1">
          <mxGeometry x="200" y="548" width="40" height="30" as="geometry" />
        </mxCell>
        <mxCell id="_Uz8rMzAMLqi7l_KZJHt-113" value="10" style="text;html=1;align=center;verticalAlign=middle;resizable=0;points=[];autosize=1;strokeColor=none;fillColor=none;" vertex="1" parent="1">
          <mxGeometry x="240" y="548" width="40" height="30" as="geometry" />
        </mxCell>
        <mxCell id="_Uz8rMzAMLqi7l_KZJHt-114" value="00" style="text;html=1;align=center;verticalAlign=middle;resizable=0;points=[];autosize=1;strokeColor=none;fillColor=none;" vertex="1" parent="1">
          <mxGeometry x="100" y="588" width="40" height="30" as="geometry" />
        </mxCell>
        <mxCell id="_Uz8rMzAMLqi7l_KZJHt-115" value="01" style="text;html=1;align=center;verticalAlign=middle;resizable=0;points=[];autosize=1;strokeColor=none;fillColor=none;" vertex="1" parent="1">
          <mxGeometry x="100" y="628" width="40" height="30" as="geometry" />
        </mxCell>
        <mxCell id="_Uz8rMzAMLqi7l_KZJHt-116" value="11" style="text;html=1;align=center;verticalAlign=middle;resizable=0;points=[];autosize=1;strokeColor=none;fillColor=none;" vertex="1" parent="1">
          <mxGeometry x="100" y="658" width="40" height="30" as="geometry" />
        </mxCell>
        <mxCell id="_Uz8rMzAMLqi7l_KZJHt-117" value="10" style="text;html=1;align=center;verticalAlign=middle;resizable=0;points=[];autosize=1;strokeColor=none;fillColor=none;" vertex="1" parent="1">
          <mxGeometry x="100" y="698" width="40" height="30" as="geometry" />
        </mxCell>
        <mxCell id="_Uz8rMzAMLqi7l_KZJHt-118" value="" style="endArrow=none;html=1;strokeWidth=1;rounded=0;fontFamily=Helvetica;fontSize=12;fontColor=default;fontStyle=1;" edge="1" parent="1">
          <mxGeometry width="100" relative="1" as="geometry">
            <mxPoint x="128" y="610" as="sourcePoint" />
            <mxPoint x="290" y="610" as="targetPoint" />
          </mxGeometry>
        </mxCell>
        <mxCell id="_Uz8rMzAMLqi7l_KZJHt-119" value="" style="endArrow=none;html=1;strokeWidth=1;rounded=0;fontFamily=Helvetica;fontSize=12;fontColor=default;fontStyle=1;exitX=0.75;exitY=0.733;exitDx=0;exitDy=0;exitPerimeter=0;" edge="1" parent="1" source="_Uz8rMzAMLqi7l_KZJHt-115">
          <mxGeometry width="100" relative="1" as="geometry">
            <mxPoint x="200" y="655" as="sourcePoint" />
            <mxPoint x="290" y="650" as="targetPoint" />
          </mxGeometry>
        </mxCell>
        <mxCell id="_Uz8rMzAMLqi7l_KZJHt-120" value="" style="endArrow=none;html=1;strokeWidth=1;rounded=0;fontFamily=Helvetica;fontSize=12;fontColor=default;fontStyle=1;exitX=0.006;exitY=0.713;exitDx=0;exitDy=0;exitPerimeter=0;entryX=0.988;entryY=0.713;entryDx=0;entryDy=0;entryPerimeter=0;" edge="1" parent="1" source="_Uz8rMzAMLqi7l_KZJHt-109" target="_Uz8rMzAMLqi7l_KZJHt-109">
          <mxGeometry width="100" relative="1" as="geometry">
            <mxPoint x="210" y="665" as="sourcePoint" />
            <mxPoint x="725" y="663" as="targetPoint" />
          </mxGeometry>
        </mxCell>
        <mxCell id="_Uz8rMzAMLqi7l_KZJHt-121" value="" style="endArrow=none;html=1;strokeWidth=1;rounded=0;fontFamily=Helvetica;fontSize=12;fontColor=default;fontStyle=1;entryX=0.25;entryY=1;entryDx=0;entryDy=0;" edge="1" parent="1" target="_Uz8rMzAMLqi7l_KZJHt-109">
          <mxGeometry width="100" relative="1" as="geometry">
            <mxPoint x="170" y="571" as="sourcePoint" />
            <mxPoint x="735" y="673" as="targetPoint" />
          </mxGeometry>
        </mxCell>
        <mxCell id="_Uz8rMzAMLqi7l_KZJHt-122" value="" style="endArrow=none;html=1;strokeWidth=1;rounded=0;fontFamily=Helvetica;fontSize=12;fontColor=default;fontStyle=1;entryX=0.5;entryY=1;entryDx=0;entryDy=0;" edge="1" parent="1" target="_Uz8rMzAMLqi7l_KZJHt-109">
          <mxGeometry width="100" relative="1" as="geometry">
            <mxPoint x="210" y="570" as="sourcePoint" />
            <mxPoint x="745" y="683" as="targetPoint" />
            <Array as="points">
              <mxPoint x="210" y="670" />
            </Array>
          </mxGeometry>
        </mxCell>
        <mxCell id="_Uz8rMzAMLqi7l_KZJHt-123" value="" style="endArrow=none;html=1;strokeWidth=1;rounded=0;fontFamily=Helvetica;fontSize=12;fontColor=default;fontStyle=1;entryX=0.75;entryY=1;entryDx=0;entryDy=0;" edge="1" parent="1" target="_Uz8rMzAMLqi7l_KZJHt-109">
          <mxGeometry width="100" relative="1" as="geometry">
            <mxPoint x="250" y="570" as="sourcePoint" />
            <mxPoint x="755" y="693" as="targetPoint" />
          </mxGeometry>
        </mxCell>
        <mxCell id="_Uz8rMzAMLqi7l_KZJHt-124" value="" style="endArrow=none;html=1;strokeWidth=1;rounded=0;fontFamily=Helvetica;fontSize=12;fontColor=default;fontStyle=1;" edge="1" parent="1">
          <mxGeometry width="100" relative="1" as="geometry">
            <mxPoint x="100" y="520" as="sourcePoint" />
            <mxPoint x="130" y="570" as="targetPoint" />
          </mxGeometry>
        </mxCell>
        <mxCell id="_Uz8rMzAMLqi7l_KZJHt-126" value="B[1]&lt;div&gt;B[0]&lt;/div&gt;" style="text;html=1;align=center;verticalAlign=middle;resizable=0;points=[];autosize=1;strokeColor=none;fillColor=none;" vertex="1" parent="1">
          <mxGeometry x="120" y="522" width="40" height="40" as="geometry" />
        </mxCell>
        <mxCell id="_Uz8rMzAMLqi7l_KZJHt-129" value="1" style="text;html=1;align=center;verticalAlign=middle;resizable=0;points=[];autosize=1;strokeColor=none;fillColor=none;" vertex="1" parent="1">
          <mxGeometry x="115" y="88" width="30" height="30" as="geometry" />
        </mxCell>
        <mxCell id="_Uz8rMzAMLqi7l_KZJHt-130" value="1" style="text;html=1;align=center;verticalAlign=middle;resizable=0;points=[];autosize=1;strokeColor=none;fillColor=none;" vertex="1" parent="1">
          <mxGeometry x="75" y="128" width="30" height="30" as="geometry" />
        </mxCell>
        <mxCell id="_Uz8rMzAMLqi7l_KZJHt-131" value="1" style="text;html=1;align=center;verticalAlign=middle;resizable=0;points=[];autosize=1;strokeColor=none;fillColor=none;" vertex="1" parent="1">
          <mxGeometry x="115" y="158" width="30" height="30" as="geometry" />
        </mxCell>
        <mxCell id="_Uz8rMzAMLqi7l_KZJHt-132" value="1" style="text;html=1;align=center;verticalAlign=middle;resizable=0;points=[];autosize=1;strokeColor=none;fillColor=none;" vertex="1" parent="1">
          <mxGeometry x="160" y="198" width="30" height="30" as="geometry" />
        </mxCell>
        <mxCell id="_Uz8rMzAMLqi7l_KZJHt-147" value="1" style="text;html=1;align=center;verticalAlign=middle;resizable=0;points=[];autosize=1;strokeColor=none;fillColor=none;" vertex="1" parent="1">
          <mxGeometry x="465" y="128" width="30" height="30" as="geometry" />
        </mxCell>
        <mxCell id="_Uz8rMzAMLqi7l_KZJHt-148" value="1" style="text;html=1;align=center;verticalAlign=middle;resizable=0;points=[];autosize=1;strokeColor=none;fillColor=none;" vertex="1" parent="1">
          <mxGeometry x="425" y="198" width="30" height="30" as="geometry" />
        </mxCell>
        <mxCell id="_Uz8rMzAMLqi7l_KZJHt-149" value="1" style="text;html=1;align=center;verticalAlign=middle;resizable=0;points=[];autosize=1;strokeColor=none;fillColor=none;" vertex="1" parent="1">
          <mxGeometry x="385" y="126" width="30" height="30" as="geometry" />
        </mxCell>
        <mxCell id="_Uz8rMzAMLqi7l_KZJHt-150" value="1" style="text;html=1;align=center;verticalAlign=middle;resizable=0;points=[];autosize=1;strokeColor=none;fillColor=none;" vertex="1" parent="1">
          <mxGeometry x="425" y="158" width="30" height="30" as="geometry" />
        </mxCell>
        <mxCell id="_Uz8rMzAMLqi7l_KZJHt-151" value="1" style="text;html=1;align=center;verticalAlign=middle;resizable=0;points=[];autosize=1;strokeColor=none;fillColor=none;" vertex="1" parent="1">
          <mxGeometry x="465" y="158" width="30" height="30" as="geometry" />
        </mxCell>
        <mxCell id="_Uz8rMzAMLqi7l_KZJHt-152" value="1" style="text;html=1;align=center;verticalAlign=middle;resizable=0;points=[];autosize=1;strokeColor=none;fillColor=none;" vertex="1" parent="1">
          <mxGeometry x="350" y="158" width="30" height="30" as="geometry" />
        </mxCell>
        <mxCell id="_Uz8rMzAMLqi7l_KZJHt-153" value="1" style="text;html=1;align=center;verticalAlign=middle;resizable=0;points=[];autosize=1;strokeColor=none;fillColor=none;" vertex="1" parent="1">
          <mxGeometry x="740" y="95" width="30" height="30" as="geometry" />
        </mxCell>
        <mxCell id="_Uz8rMzAMLqi7l_KZJHt-154" value="1" style="text;html=1;align=center;verticalAlign=middle;resizable=0;points=[];autosize=1;strokeColor=none;fillColor=none;" vertex="1" parent="1">
          <mxGeometry x="625" y="168" width="30" height="30" as="geometry" />
        </mxCell>
        <mxCell id="_Uz8rMzAMLqi7l_KZJHt-155" value="1" style="text;html=1;align=center;verticalAlign=middle;resizable=0;points=[];autosize=1;strokeColor=none;fillColor=none;" vertex="1" parent="1">
          <mxGeometry x="705" y="168" width="30" height="30" as="geometry" />
        </mxCell>
        <mxCell id="_Uz8rMzAMLqi7l_KZJHt-156" value="1" style="text;html=1;align=center;verticalAlign=middle;resizable=0;points=[];autosize=1;strokeColor=none;fillColor=none;" vertex="1" parent="1">
          <mxGeometry x="740" y="168" width="30" height="30" as="geometry" />
        </mxCell>
        <mxCell id="_Uz8rMzAMLqi7l_KZJHt-157" value="1" style="text;html=1;align=center;verticalAlign=middle;resizable=0;points=[];autosize=1;strokeColor=none;fillColor=none;" vertex="1" parent="1">
          <mxGeometry x="145" y="318" width="30" height="30" as="geometry" />
        </mxCell>
        <mxCell id="_Uz8rMzAMLqi7l_KZJHt-158" value="1" style="text;html=1;align=center;verticalAlign=middle;resizable=0;points=[];autosize=1;strokeColor=none;fillColor=none;" vertex="1" parent="1">
          <mxGeometry x="105" y="366" width="30" height="30" as="geometry" />
        </mxCell>
        <mxCell id="_Uz8rMzAMLqi7l_KZJHt-159" value="1" style="text;html=1;align=center;verticalAlign=middle;resizable=0;points=[];autosize=1;strokeColor=none;fillColor=none;" vertex="1" parent="1">
          <mxGeometry x="185" y="366" width="30" height="30" as="geometry" />
        </mxCell>
        <mxCell id="_Uz8rMzAMLqi7l_KZJHt-160" value="1" style="text;html=1;align=center;verticalAlign=middle;resizable=0;points=[];autosize=1;strokeColor=none;fillColor=none;" vertex="1" parent="1">
          <mxGeometry x="185" y="400" width="30" height="30" as="geometry" />
        </mxCell>
        <mxCell id="_Uz8rMzAMLqi7l_KZJHt-161" value="1" style="text;html=1;align=center;verticalAlign=middle;resizable=0;points=[];autosize=1;strokeColor=none;fillColor=none;" vertex="1" parent="1">
          <mxGeometry x="220" y="436" width="30" height="30" as="geometry" />
        </mxCell>
        <mxCell id="_Uz8rMzAMLqi7l_KZJHt-162" value="1" style="text;html=1;align=center;verticalAlign=middle;resizable=0;points=[];autosize=1;strokeColor=none;fillColor=none;" vertex="1" parent="1">
          <mxGeometry x="435" y="333" width="30" height="30" as="geometry" />
        </mxCell>
        <mxCell id="_Uz8rMzAMLqi7l_KZJHt-163" value="1" style="text;html=1;align=center;verticalAlign=middle;resizable=0;points=[];autosize=1;strokeColor=none;fillColor=none;" vertex="1" parent="1">
          <mxGeometry x="470" y="333" width="30" height="30" as="geometry" />
        </mxCell>
        <mxCell id="_Uz8rMzAMLqi7l_KZJHt-164" value="1" style="text;html=1;align=center;verticalAlign=middle;resizable=0;points=[];autosize=1;strokeColor=none;fillColor=none;" vertex="1" parent="1">
          <mxGeometry x="395" y="373" width="30" height="30" as="geometry" />
        </mxCell>
        <mxCell id="_Uz8rMzAMLqi7l_KZJHt-165" value="1" style="text;html=1;align=center;verticalAlign=middle;resizable=0;points=[];autosize=1;strokeColor=none;fillColor=none;" vertex="1" parent="1">
          <mxGeometry x="435" y="370" width="30" height="30" as="geometry" />
        </mxCell>
        <mxCell id="_Uz8rMzAMLqi7l_KZJHt-166" value="1" style="text;html=1;align=center;verticalAlign=middle;resizable=0;points=[];autosize=1;strokeColor=none;fillColor=none;" vertex="1" parent="1">
          <mxGeometry x="470" y="370" width="30" height="30" as="geometry" />
        </mxCell>
        <mxCell id="_Uz8rMzAMLqi7l_KZJHt-167" value="1" style="text;html=1;align=center;verticalAlign=middle;resizable=0;points=[];autosize=1;strokeColor=none;fillColor=none;" vertex="1" parent="1">
          <mxGeometry x="435" y="446" width="30" height="30" as="geometry" />
        </mxCell>
        <mxCell id="_Uz8rMzAMLqi7l_KZJHt-168" value="1" style="text;html=1;align=center;verticalAlign=middle;resizable=0;points=[];autosize=1;strokeColor=none;fillColor=none;" vertex="1" parent="1">
          <mxGeometry x="685" y="327" width="30" height="30" as="geometry" />
        </mxCell>
        <mxCell id="_Uz8rMzAMLqi7l_KZJHt-169" value="1" style="text;html=1;align=center;verticalAlign=middle;resizable=0;points=[];autosize=1;strokeColor=none;fillColor=none;" vertex="1" parent="1">
          <mxGeometry x="730" y="366" width="30" height="30" as="geometry" />
        </mxCell>
        <mxCell id="_Uz8rMzAMLqi7l_KZJHt-170" value="1" style="text;html=1;align=center;verticalAlign=middle;resizable=0;points=[];autosize=1;strokeColor=none;fillColor=none;" vertex="1" parent="1">
          <mxGeometry x="720" y="327" width="30" height="30" as="geometry" />
        </mxCell>
        <mxCell id="_Uz8rMzAMLqi7l_KZJHt-171" value="1" style="text;html=1;align=center;verticalAlign=middle;resizable=0;points=[];autosize=1;strokeColor=none;fillColor=none;" vertex="1" parent="1">
          <mxGeometry x="760" y="327" width="30" height="30" as="geometry" />
        </mxCell>
        <mxCell id="_Uz8rMzAMLqi7l_KZJHt-172" value="1" style="text;html=1;align=center;verticalAlign=middle;resizable=0;points=[];autosize=1;strokeColor=none;fillColor=none;" vertex="1" parent="1">
          <mxGeometry x="685" y="403" width="30" height="30" as="geometry" />
        </mxCell>
        <mxCell id="_Uz8rMzAMLqi7l_KZJHt-173" value="1" style="text;html=1;align=center;verticalAlign=middle;resizable=0;points=[];autosize=1;strokeColor=none;fillColor=none;" vertex="1" parent="1">
          <mxGeometry x="135" y="570" width="30" height="30" as="geometry" />
        </mxCell>
        <mxCell id="_Uz8rMzAMLqi7l_KZJHt-174" value="1" style="text;html=1;align=center;verticalAlign=middle;resizable=0;points=[];autosize=1;strokeColor=none;fillColor=none;" vertex="1" parent="1">
          <mxGeometry x="175" y="570" width="30" height="30" as="geometry" />
        </mxCell>
        <mxCell id="_Uz8rMzAMLqi7l_KZJHt-175" value="1" style="text;html=1;align=center;verticalAlign=middle;resizable=0;points=[];autosize=1;strokeColor=none;fillColor=none;" vertex="1" parent="1">
          <mxGeometry x="215" y="610" width="30" height="30" as="geometry" />
        </mxCell>
        <mxCell id="_Uz8rMzAMLqi7l_KZJHt-176" value="1" style="text;html=1;align=center;verticalAlign=middle;resizable=0;points=[];autosize=1;strokeColor=none;fillColor=none;" vertex="1" parent="1">
          <mxGeometry x="135" y="650" width="30" height="30" as="geometry" />
        </mxCell>
        <mxCell id="_Uz8rMzAMLqi7l_KZJHt-177" value="segment g" style="text;html=1;align=center;verticalAlign=middle;resizable=0;points=[];autosize=1;strokeColor=none;fillColor=none;" vertex="1" parent="1">
          <mxGeometry x="170" y="508" width="80" height="30" as="geometry" />
        </mxCell>
        <mxCell id="_Uz8rMzAMLqi7l_KZJHt-179" value="segment f" style="text;html=1;align=center;verticalAlign=middle;resizable=0;points=[];autosize=1;strokeColor=none;fillColor=none;" vertex="1" parent="1">
          <mxGeometry x="680" y="268" width="80" height="30" as="geometry" />
        </mxCell>
        <mxCell id="_Uz8rMzAMLqi7l_KZJHt-180" value="segment e" style="text;html=1;align=center;verticalAlign=middle;resizable=0;points=[];autosize=1;strokeColor=none;fillColor=none;" vertex="1" parent="1">
          <mxGeometry x="420" y="268" width="80" height="30" as="geometry" />
        </mxCell>
        <mxCell id="_Uz8rMzAMLqi7l_KZJHt-181" value="segment d" style="text;html=1;align=center;verticalAlign=middle;resizable=0;points=[];autosize=1;strokeColor=none;fillColor=none;" vertex="1" parent="1">
          <mxGeometry x="130" y="258" width="80" height="30" as="geometry" />
        </mxCell>
        <mxCell id="_Uz8rMzAMLqi7l_KZJHt-182" value="segment c" style="text;html=1;align=center;verticalAlign=middle;resizable=0;points=[];autosize=1;strokeColor=none;fillColor=none;" vertex="1" parent="1">
          <mxGeometry x="660" y="28" width="80" height="30" as="geometry" />
        </mxCell>
        <mxCell id="_Uz8rMzAMLqi7l_KZJHt-183" value="segment b" style="text;html=1;align=center;verticalAlign=middle;resizable=0;points=[];autosize=1;strokeColor=none;fillColor=none;" vertex="1" parent="1">
          <mxGeometry x="380" y="28" width="80" height="30" as="geometry" />
        </mxCell>
        <mxCell id="_Uz8rMzAMLqi7l_KZJHt-184" value="segment a" style="text;html=1;align=center;verticalAlign=middle;resizable=0;points=[];autosize=1;strokeColor=none;fillColor=none;" vertex="1" parent="1">
          <mxGeometry x="90" y="28" width="80" height="30" as="geometry" />
        </mxCell>
        <mxCell id="n2GnX_LdfrLyNSMf9NtC-3" value="A[1]&lt;div&gt;A[0]&lt;/div&gt;" style="text;html=1;align=center;verticalAlign=middle;resizable=0;points=[];autosize=1;strokeColor=none;fillColor=none;" vertex="1" parent="1">
          <mxGeometry x="280" y="38" width="40" height="40" as="geometry" />
        </mxCell>
        <mxCell id="n2GnX_LdfrLyNSMf9NtC-4" value="A[1]&lt;div&gt;A[0]&lt;/div&gt;" style="text;html=1;align=center;verticalAlign=middle;resizable=0;points=[];autosize=1;strokeColor=none;fillColor=none;" vertex="1" parent="1">
          <mxGeometry x="50" y="273" width="40" height="40" as="geometry" />
        </mxCell>
        <mxCell id="n2GnX_LdfrLyNSMf9NtC-5" value="A[1]&lt;div&gt;A[0]&lt;/div&gt;" style="text;html=1;align=center;verticalAlign=middle;resizable=0;points=[];autosize=1;strokeColor=none;fillColor=none;" vertex="1" parent="1">
          <mxGeometry x="330" y="278" width="40" height="40" as="geometry" />
        </mxCell>
        <mxCell id="n2GnX_LdfrLyNSMf9NtC-6" value="A[1]&lt;div&gt;A[0]&lt;/div&gt;" style="text;html=1;align=center;verticalAlign=middle;resizable=0;points=[];autosize=1;strokeColor=none;fillColor=none;" vertex="1" parent="1">
          <mxGeometry x="560" y="40" width="40" height="40" as="geometry" />
        </mxCell>
        <mxCell id="n2GnX_LdfrLyNSMf9NtC-7" value="A[1]&lt;div&gt;A[0]&lt;/div&gt;" style="text;html=1;align=center;verticalAlign=middle;resizable=0;points=[];autosize=1;strokeColor=none;fillColor=none;" vertex="1" parent="1">
          <mxGeometry x="585" y="286" width="40" height="40" as="geometry" />
        </mxCell>
        <mxCell id="n2GnX_LdfrLyNSMf9NtC-8" value="A[1]&lt;div&gt;A[0]&lt;/div&gt;" style="text;html=1;align=center;verticalAlign=middle;resizable=0;points=[];autosize=1;strokeColor=none;fillColor=none;" vertex="1" parent="1">
          <mxGeometry x="75" y="538" width="40" height="40" as="geometry" />
        </mxCell>
        <mxCell id="n2GnX_LdfrLyNSMf9NtC-9" value="B[1]&lt;div&gt;B[0]&lt;/div&gt;" style="text;html=1;align=center;verticalAlign=middle;resizable=0;points=[];autosize=1;strokeColor=none;fillColor=none;" vertex="1" parent="1">
          <mxGeometry x="80" y="263" width="40" height="40" as="geometry" />
        </mxCell>
        <mxCell id="n2GnX_LdfrLyNSMf9NtC-10" value="B[1]&lt;div&gt;B[0]&lt;/div&gt;" style="text;html=1;align=center;verticalAlign=middle;resizable=0;points=[];autosize=1;strokeColor=none;fillColor=none;" vertex="1" parent="1">
          <mxGeometry x="370" y="273" width="40" height="40" as="geometry" />
        </mxCell>
        <mxCell id="n2GnX_LdfrLyNSMf9NtC-11" value="B[1]&lt;div&gt;B[0]&lt;/div&gt;" style="text;html=1;align=center;verticalAlign=middle;resizable=0;points=[];autosize=1;strokeColor=none;fillColor=none;" vertex="1" parent="1">
          <mxGeometry x="620" y="273" width="40" height="40" as="geometry" />
        </mxCell>
        <mxCell id="n2GnX_LdfrLyNSMf9NtC-12" value="B[1]&lt;div&gt;B[0]&lt;/div&gt;" style="text;html=1;align=center;verticalAlign=middle;resizable=0;points=[];autosize=1;strokeColor=none;fillColor=none;" vertex="1" parent="1">
          <mxGeometry x="320" y="25" width="40" height="40" as="geometry" />
        </mxCell>
        <mxCell id="n2GnX_LdfrLyNSMf9NtC-13" value="B[1]&lt;div&gt;B[0]&lt;/div&gt;" style="text;html=1;align=center;verticalAlign=middle;resizable=0;points=[];autosize=1;strokeColor=none;fillColor=none;" vertex="1" parent="1">
          <mxGeometry x="610" y="28" width="40" height="40" as="geometry" />
        </mxCell>
      </root>
    </mxGraphModel>
  </diagram>
</mxfile>
